<svg width="18" height="14" viewBox="0 0 18 14" fill="none" xmlns="http://www.w3.org/2000/svg">
<path fill-rule="evenodd" clip-rule="evenodd" d="M0.75 1C0.75 0.585786 1.08579 0.25 1.5 0.25H16.5C16.9142 0.25 17.25 0.585786 17.25 1C17.25 1.41421 16.9142 1.75 16.5 1.75H1.5C1.08579 1.75 0.75 1.41421 0.75 1ZM0.75 7C0.75 6.58579 1.08579 6.25 1.5 6.25H16.5C16.9142 6.25 17.25 6.58579 17.25 7C17.25 7.41421 16.9142 7.75 16.5 7.75H1.5C1.08579 7.75 0.75 7.41421 0.75 7ZM1.5 12.25C1.08579 12.25 0.75 12.5858 0.75 13C0.75 13.4142 1.08579 13.75 1.5 13.75H16.5C16.9142 13.75 17.25 13.4142 17.25 13C17.25 12.5858 16.9142 12.25 16.5 12.25H1.5Z" fill="#1B141F"/>
</svg>
